<?xml version="1.0" encoding="utf-8"?>
<!-- Generator: Adobe Illustrator 26.1.0, SVG Export Plug-In . SVG Version: 6.00 Build 0)  -->
<svg version="1.1" id="logo" xmlns="http://www.w3.org/2000/svg" xmlns:xlink="http://www.w3.org/1999/xlink" x="0px" y="0px"
	 viewBox="0 0 354.9 72.3" style="enable-background:new 0 0 354.9 72.3;" xml:space="preserve">
<style type="text/css">
	.st0{fill:#FFFFFF;}
</style>
<g id="Group_164" transform="translate(0 2.95)">
	<path id="Path_3079" class="st0" d="M116.2,39h3.7V5.4h5.8c2.9,0,5.9,0,8.3,1.8c2.1,1.5,3.4,4,3.5,6.6c0.1,3.2-1.8,6.2-4.8,7.5
		c-2.4,1.1-5.5,1-8.1,1h-1.1L136.2,39h4.6l-10.4-13.8c6-0.1,10.9-5.1,10.9-11.1c0.1-4.2-2.1-8.2-5.8-10.2c-3.1-1.8-7-1.8-10.5-1.8
		h-8.8V39z M173.3,26.6c-0.1-4-0.7-7.1-3.2-10.3c-2.7-3.3-6.7-5.3-11-5.3c-7.8,0-14.2,6.3-14.3,14.1c0,0.1,0,0.1,0,0.2
		c0,7.8,6.3,14.3,14.1,14.3c0.1,0,0.1,0,0.2,0c6-0.1,11.3-3.9,13.3-9.6h-3.9c-1.8,3.7-5.6,6.1-9.8,6c-5,0-10.1-4.3-10.3-9.5
		L173.3,26.6z M148.6,23.3c1-5.1,5.4-8.7,10.6-8.7c5.1,0.1,9.4,3.7,10.4,8.7H148.6z M206.4,2h-3.7v14.4c-2.2-3.5-6.5-5.4-10.6-5.4
		c-7.9,0-14.7,6-14.7,14.2c0,4,1.6,7.6,3,8.8c3.8,4,7.5,5.7,11.4,5.7c4.4,0.2,8.6-2,11-5.7v5h3.5V2z M202.8,25.2
		c0,6-4.8,10.9-10.9,10.9c-6,0-10.9-4.9-10.8-10.9c0.1-5.9,4.9-10.6,10.8-10.6c5.9-0.1,10.8,4.6,10.9,10.5
		C202.8,25.1,202.8,25.2,202.8,25.2z M220.2,39h4.2l5.8-18.1l5.9,18.1h4.2l10.4-27.4h-3.9l-8.8,22.9L231.8,15h-3.1l-6.4,19.5
		l-8.6-22.9h-3.9L220.2,39z M267.5,11c-7.9,0-14.4,6.5-14.4,14.4c0,0,0,0,0,0.1c0.1,7.8,6.5,14.2,14.4,14.2
		c7.9-0.1,14.2-6.6,14.2-14.5C281.6,17.4,275.3,11.2,267.5,11z M267.5,14.6c2.7,0,5.3,1.1,7.3,3c2.1,1.9,3.3,4.7,3.2,7.6
		c0,5.9-4.4,10.9-10.5,10.9c-5.9,0-10.6-4.7-10.6-10.6c-0.1-5.9,4.6-10.8,10.5-10.9C267.5,14.6,267.5,14.6,267.5,14.6z M300.3,11
		c-7.9,0-14.4,6.5-14.4,14.4c0,0,0,0,0,0.1c0.1,7.8,6.5,14.2,14.4,14.2c7.9-0.1,14.2-6.6,14.2-14.5C314.3,17.4,308,11.2,300.3,11z
		 M300.3,14.6c2.7,0,5.3,1.1,7.3,3c2.1,1.9,3.3,4.7,3.2,7.6c0,5.9-4.4,10.9-10.5,10.9c-5.9,0-10.6-4.7-10.6-10.6
		c-0.1-5.9,4.6-10.8,10.5-10.9C300.2,14.6,300.2,14.6,300.3,14.6z M347.7,2H344v14.4c-2.2-3.5-6.5-5.4-10.6-5.4
		c-8,0-14.7,6-14.7,14.2c0,4,1.6,7.6,3,8.8c3.9,4,7.5,5.7,11.5,5.7c4.4,0.2,8.6-2,11-5.7v5h3.5V2z M344.1,25.2
		c0,6-4.8,10.9-10.8,10.9c-6,0-10.9-4.9-10.9-10.9c0.1-5.9,4.9-10.6,10.8-10.6c5.9-0.1,10.8,4.6,10.9,10.5
		C344.1,25.1,344.1,25.2,344.1,25.2z"/>
	<path id="Path_3080" class="st0" d="M116.2,64.1h1.3V51.6h-1.3V64.1z M132.8,64.1h1.3v-11l7.5,11h1.3V51.6h-1.3V62l-7-10.4h-1.7
		V64.1z M162.2,64.1h1.2l5.2-12.6h-1.4l-4.4,11l-4.4-11H157L162.2,64.1z M182.8,64.1h6.9V63h-5.6v-4.6h5.4v-1.1h-5.4v-4.5h5.6v-1.1
		h-6.9V64.1z M203.8,60.6c0,2.1,1.7,3.7,3.7,3.7c0.1,0,0.1,0,0.2,0c2.1,0,3.8-1.6,3.8-3.7c0-1-0.4-2-1.2-2.6
		c-0.7-0.6-1.5-0.9-2.4-1.1c-1.2-0.3-2.5-0.7-2.5-2.2c0-1.2,0.9-2.2,2.1-2.2c0,0,0,0,0,0c1.2,0,2.3,0.9,2.3,2.2c0,0,0,0,0,0h1.3
		c0-1.9-1.5-3.4-3.4-3.4c0,0,0,0-0.1,0c-1.9-0.1-3.5,1.3-3.6,3.2c0,0.1,0,0.1,0,0.2c0,0.9,0.4,1.8,1.1,2.3c0.7,0.5,1.4,0.8,2.2,1
		c0.7,0.1,1.4,0.4,1.9,0.8c0.5,0.4,0.9,1.1,0.9,1.8c0,1.4-1.1,2.5-2.5,2.5c0,0-0.1,0-0.1,0c-1.4,0-2.5-1.1-2.5-2.5H203.8z
		 M227.6,64.1h1.3V52.7h2.9v-1.1h-7v1.1h2.9L227.6,64.1z M245.9,64.1h1.3V53l4.7,11.2h1.1l4.7-11.2v11.2h1.3V51.6H257l-4.6,10.7
		l-4.6-10.7h-1.9L245.9,64.1z M274.3,64.1h6.9V63h-5.6v-4.6h5.4v-1.1h-5.4v-4.5h5.6v-1.1h-6.9L274.3,64.1z M296.1,64.1h1.3v-11
		l7.5,11h1.3V51.6h-1.3V62l-7-10.4h-1.7V64.1z M323.2,64.1h1.3V52.7h2.9v-1.1h-7v1.1h2.9L323.2,64.1z M340.5,60.6
		c0,2.1,1.7,3.7,3.7,3.7c0.1,0,0.1,0,0.2,0c2.1,0,3.8-1.6,3.8-3.7c0-1-0.4-2-1.2-2.6c-0.7-0.6-1.5-0.9-2.4-1.1
		c-1.2-0.3-2.5-0.7-2.5-2.2c0-1.2,0.9-2.2,2.1-2.2c0,0,0,0,0,0c1.2,0,2.3,0.9,2.3,2.2c0,0,0,0,0,0h1.3c0-1.9-1.5-3.4-3.4-3.4
		c0,0,0,0-0.1,0c-1.9-0.1-3.5,1.3-3.6,3.2c0,0.1,0,0.1,0,0.2c0,0.9,0.4,1.8,1.1,2.3c0.7,0.5,1.4,0.8,2.2,1c0.7,0.1,1.4,0.4,1.9,0.8
		c0.5,0.4,0.9,1.1,0.9,1.8c0,1.4-1.1,2.5-2.5,2.5c0,0-0.1,0-0.1,0c-1.4,0-2.5-1.1-2.5-2.5H340.5z"/>
</g>
<path class="st0" d="M31.2,5.6H19.5c0,0,0,44.6,0,48.9c0,5.1-3,8.8-4.6,9.8c-2.6,1.6-8.7,1.3-8.7,1.3V67h38.8v-1.4
	c0,0-6.6,0.2-8.8-1.3c-2.3-1.5-4.7-4-4.7-9.6C31.4,49,31.2,5.7,31.2,5.6"/>
<path class="st0" d="M6.1,65.8c0,0-1-11-1-11.5c0-0.5-1.3-6.8-0.7-8.4c0.4-1,0.6-1,0.7-1.2c0.2-0.6,0-0.7,0-0.9c0-0.2-1.9-1-0.9-2.9
	c0.4-0.8,1-1.3,1.9-1.4c0.9-0.1,1.4,0.2,1.5,0.5c0.1,0.3,0.4,0.3,0.4,0.4c0,0,0.5-0.1,0.4,0.2c0,0.2-0.2,0.4,0.1,0.6
	c0.3,0.2,0.6,0.7,0.2,0.9c-0.3,0.3-1.2,0.9-0.9,1.7c0.2,0.9,0.8,1.3,1.1,2.5c0.3,1.2-0.2,9.5-0.4,11.3C8.5,59.5,8,65.8,8,65.8
	S6.2,65.7,6.1,65.8"/>
<path class="st0" d="M75,5.6L61.5,5.7c0,0-0.4,10-5.7,13.9C49.2,24.4,41,24,41,24s5.9,13.4,16.6,27.4c1.1,1.5,13.3,15.8,13.3,15.8
	l23.8-0.2v-1.4c0,0-9.1,0.2-22.5-14.1C70,49.4,54.5,27.4,54.5,27.4s5-0.5,10.4-3.6c4.6-2.6,6.3-4.8,8.7-10.2C75.7,9.2,75,5.6,75,5.6
	"/>
</svg>
